<?xml version="1.0" encoding="iso-8859-1"?>
<!-- Generator: Adobe Illustrator 19.0.0, SVG Export Plug-In . SVG Version: 6.00 Build 0)  -->
<svg version="1.1" id="Capa_1" xmlns="http://www.w3.org/2000/svg" xmlns:xlink="http://www.w3.org/1999/xlink" x="0px" y="0px"
	 viewBox="0 0 512 512" style="enable-background:new 0 0 512 512;" xml:space="preserve">
<path style="fill:#F8EB76;" d="M256,81.017c-96.495,0-175,78.497-175,174.983s78.505,174.983,175,174.983S431,352.486,431,256
	S352.495,81.017,256,81.017z"/>
<path style="fill:#FAD557;" d="M256,81.017v349.966c96.495,0,175-78.497,175-174.983S352.495,81.017,256,81.017z"/>
<g>
	<path style="fill:#FFAE39;" d="M250.455,327.153c-23.355-0.779-42.429-12.844-42.429-25.299c0-6.617,5.839-16.347,13.235-16.347
		c8.174,0,14.792,11.482,29.194,14.012v-31.526c-17.906-6.811-38.925-15.179-38.925-40.089c0-24.715,18.295-36.586,38.925-39.505
		v-5.449c0-2.725,3.114-5.254,7.396-5.254c3.698,0,7.396,2.53,7.396,5.254v4.865c12.067,0.389,34.838,3.503,34.838,16.931
		c0,5.254-3.503,15.958-12.067,15.958c-6.422,0-10.121-6.227-22.771-7.2v28.413c17.711,6.617,38.341,15.763,38.341,42.035
		c0,24.131-15.57,38.727-38.341,42.424v5.644c0,2.724-3.698,5.254-7.396,5.254c-4.282,0-7.396-2.53-7.396-5.254L250.455,327.153
		L250.455,327.153z M252.401,237.245v-23.158c-8.758,1.752-12.456,6.227-12.456,10.898
		C239.945,230.628,245.005,234.131,252.401,237.245z M263.3,273.247v26.077c6.617-1.557,11.872-5.254,11.872-12.26
		C275.172,280.642,270.307,276.555,263.3,273.247z"/>
	<path style="fill:#FFAE39;" d="M347.47,49.292c-58.005-25.704-124.846-25.743-182.939,0c-7.575,3.357-16.435-0.062-19.792-7.635
		c-3.356-7.573,0.063-16.433,7.636-19.789c65.746-29.133,141.4-29.18,207.25,0c7.574,3.356,10.993,12.216,7.636,19.789
		C363.905,49.229,355.046,52.648,347.47,49.292z"/>
	<path style="fill:#FFAE39;" d="M152.375,490.133c-7.574-3.356-10.993-12.216-7.636-19.789s12.216-10.992,19.792-7.635
		c58.005,25.703,124.846,25.743,182.939,0c7.576-3.357,16.435,0.063,19.792,7.635c3.356,7.573-0.063,16.433-7.636,19.789
		C293.879,519.266,218.225,519.312,152.375,490.133z"/>
	<path style="fill:#FFAE39;" d="M14.724,245.174c-8.237-0.88-14.202-8.271-13.321-16.507C9.043,157.171,46.829,91.633,105.028,49.2
		c6.694-4.88,16.077-3.411,20.958,3.282c4.881,6.693,3.411,16.075-3.283,20.956c-51.263,37.376-84.719,95.236-91.47,158.416
		C30.355,240.065,22.987,246.056,14.724,245.174z"/>
	<path style="fill:#FFAE39;" d="M105.028,462.8C46.924,420.436,9.056,354.947,1.403,283.333c-0.88-8.237,5.084-15.627,13.321-16.507
		c8.233-0.881,15.628,5.083,16.509,13.32c6.741,63.078,40.126,120.98,91.47,158.416c6.694,4.88,8.164,14.263,3.283,20.956
		C121.081,466.243,111.691,467.657,105.028,462.8z"/>
</g>
<g>
	<path style="fill:#FC9D26;" d="M265.247,241.916v-28.413c12.65,0.973,16.349,7.2,22.771,7.2c8.563,0,12.067-10.703,12.067-15.958
		c0-13.428-22.771-16.542-34.838-16.931v-4.865c0-2.725-3.698-5.254-7.396-5.254c-0.647,0-1.263,0.063-1.851,0.171v159.235
		c0.587,0.108,1.203,0.172,1.851,0.172c3.698,0,7.396-2.53,7.396-5.254v-5.644c22.771-3.698,38.341-18.293,38.341-42.424
		C303.588,257.678,282.958,248.532,265.247,241.916z M263.3,299.324v-26.077c7.006,3.308,11.872,7.395,11.872,13.817
		C275.172,294.07,269.917,297.768,263.3,299.324z"/>
	<path style="fill:#FC9D26;" d="M359.625,21.867C326.712,7.283,291.35,0,256,0v30c31.234,0,62.457,6.436,91.47,19.292
		c7.576,3.356,16.435-0.063,19.792-7.635C370.618,34.083,367.199,25.224,359.625,21.867z"/>
	<path style="fill:#FC9D26;" d="M367.261,470.344c-3.357-7.573-12.215-10.992-19.792-7.635C318.433,475.575,287.211,482,256,482v30
		c35.376,0,70.74-7.295,103.625-21.867C367.199,486.776,370.618,477.917,367.261,470.344z"/>
	<path style="fill:#FC9D26;" d="M386.014,459.517c-4.881-6.693-3.411-16.075,3.283-20.956
		c51.263-37.376,84.719-95.236,91.47-158.416c0.88-8.237,8.275-14.201,16.509-13.32c8.237,0.88,14.202,8.271,13.321,16.507
		c-7.64,71.496-45.426,137.034-103.625,179.466C400.236,467.711,390.864,466.167,386.014,459.517z"/>
	<path style="fill:#FC9D26;" d="M480.767,231.854c-6.741-63.078-40.126-120.98-91.47-158.416c-6.694-4.88-8.164-14.263-3.283-20.956
		s14.264-8.163,20.958-3.282c58.104,42.363,95.973,107.853,103.625,179.466c0.88,8.236-5.084,15.627-13.321,16.507
		C489.019,246.056,481.645,240.071,480.767,231.854z"/>
</g>
<g>
</g>
<g>
</g>
<g>
</g>
<g>
</g>
<g>
</g>
<g>
</g>
<g>
</g>
<g>
</g>
<g>
</g>
<g>
</g>
<g>
</g>
<g>
</g>
<g>
</g>
<g>
</g>
<g>
</g>
</svg>
