<svg height="512" viewBox="0 0 59 59" width="512" xmlns="http://www.w3.org/2000/svg"><g id="005---Gender-Pay-Gap" fill="none"><path id="Shape" d="m50 10c-.4043959-.00008635-.7689341-.2437275-.923678-.61734544s-.0692299-.80366031.216678-1.08965456l8-8c.3923789-.37897221 1.0160848-.37355237 1.4018186.01218143.3857338.38573379.3911536 1.00943968.0121814 1.40181857l-8 8c-.1874927.18754937-.4418052.29294336-.707.293z" fill="#f29c1f"/><path id="Shape" d="m58 7c-.5522847 0-1-.44771525-1-1v-4h-4c-.5522847 0-1-.44771525-1-1s.4477153-1 1-1h5c.5522847 0 1 .44771525 1 1v5c0 .55228475-.4477153 1-1 1z" fill="#f29c1f"/><path id="Shape" d="m19 44c-.5522847 0-1-.4477153-1-1v-8c0-.5522847.4477153-1 1-1s1 .4477153 1 1v8c0 .5522847-.4477153 1-1 1z" fill="#f29c1f"/><path id="Shape" d="m22 40h-6c-.5522847 0-1-.4477153-1-1s.4477153-1 1-1h6c.5522847 0 1 .4477153 1 1s-.4477153 1-1 1z" fill="#f29c1f"/><path id="Shape" d="m16 43h6c1.1045695 0 2 .8954305 2 2v11h-10v-11c0-1.1045695.8954305-2 2-2z" fill="#955ba5"/><path id="Shape" d="m41 26h6c1.1045695 0 2 .8954305 2 2v28h-10v-28c0-1.1045695.8954305-2 2-2z" fill="#ff5364"/><circle id="Oval" cx="44" cy="15" fill="#f0c419" r="11"/><circle id="Oval" cx="19" cy="24" fill="#f0c419" r="11"/><g fill="#e57e25"><path id="Shape" d="m15 21c0-2.209139 1.790861-4 4-4s4 1.790861 4 4c0 .5522847-.4477153 1-1 1s-1-.4477153-1-1c0-1.1045695-.8954305-2-2-2s-2 .8954305-2 2 .8954305 2 2 2c.5522847 0 1 .4477153 1 1 0 2.092-5 .814-5-3z"/><path id="Shape" d="m19 31c-2.209139 0-4-1.790861-4-4 0-.5522847.4477153-1 1-1s1 .4477153 1 1c0 1.1045695.8954305 2 2 2s2-.8954305 2-2-.8954305-2-2-2c-.5522847 0-1-.4477153-1-1 0-2.092 5-.814 5 3 0 2.209139-1.790861 4-4 4z"/><path id="Shape" d="m19 19c-.5522847 0-1-.4477153-1-1v-1c0-.5522847.4477153-1 1-1s1 .4477153 1 1v1c0 .5522847-.4477153 1-1 1z"/><path id="Shape" d="m19 32c-.5522847 0-1-.4477153-1-1v-1c0-.5522847.4477153-1 1-1s1 .4477153 1 1v1c0 .5522847-.4477153 1-1 1z"/><path id="Shape" d="m40 12c0-2.209139 1.790861-4 4-4 3.812 0 5.1 5 3 5-.5522847 0-1-.4477153-1-1 0-1.1045695-.8954305-2-2-2s-2 .8954305-2 2 .8954305 2 2 2c.5522847 0 1 .4477153 1 1 0 2.092-5 .814-5-3z"/><path id="Shape" d="m44 22c-2.209139 0-4-1.790861-4-4 0-.5522847.4477153-1 1-1s1 .4477153 1 1c0 1.1045695.8954305 2 2 2s2-.8954305 2-2-.8954305-2-2-2c-.5522847 0-1-.4477153-1-1 0-2.092 5-.814 5 3 0 2.209139-1.790861 4-4 4z"/><path id="Shape" d="m44 10c-.5522847 0-1-.44771525-1-1v-1c0-.55228475.4477153-1 1-1s1 .44771525 1 1v1c0 .55228475-.4477153 1-1 1z"/><path id="Shape" d="m44 23c-.5522847 0-1-.4477153-1-1v-1c0-.5522847.4477153-1 1-1s1 .4477153 1 1v1c0 .5522847-.4477153 1-1 1z"/></g><path id="Shape" d="m58 56v2c0 .5522847-.4477153 1-1 1h-54c-1.65685425 0-3-1.3431458-3-3v-54c0-.55228475.44771525-1 1-1h2c.55228475 0 1 .44771525 1 1v52c0 .5522847.44771525 1 1 1h52c.5522847 0 1 .4477153 1 1z" fill="#35495e"/></g></svg>